HIERARCHY
ROOT Hips
{
    OFFSET 0.000000 0.000000 0.000000
    CHANNELS 6 Xposition Yposition Zposition Zrotation Xrotation Yrotation
    JOINT Spine
    {
        OFFSET -0.000000 14.517291 0.000000
        CHANNELS 3 Zrotation Xrotation Yrotation
        JOINT Spine1
        {
            OFFSET -0.000000 37.558300 0.000000
            CHANNELS 3 Zrotation Xrotation Yrotation
            JOINT Neck
            {
                OFFSET -0.000000 37.404057 3.400369
                CHANNELS 3 Zrotation Xrotation Yrotation
                JOINT Head
                {
                    OFFSET -0.000000 24.785618 -3.540803
                    CHANNELS 3 Zrotation Xrotation Yrotation
                    End Site
                    {
                        OFFSET -0.000000 35.408028 0.000000
                    }
                }
            }
            JOINT LeftShoulder
            {
                OFFSET 6.992933 33.973492 -0.192664
                CHANNELS 3 Zrotation Xrotation Yrotation
                JOINT LeftArm
                {
                    OFFSET 21.527611 0.000000 0.000000
                    CHANNELS 3 Zrotation Xrotation Yrotation
                    JOINT LeftForeArm
                    {
                        OFFSET 56.353916 0.000000 0.000000
                        CHANNELS 3 Zrotation Xrotation Yrotation
                        JOINT LeftHand
                        {
                            OFFSET 47.774071 0.000000 0.000000
                            CHANNELS 3 Zrotation Xrotation Yrotation
                            End Site
                            {
                                OFFSET 26.556021 0.000000 0.000000
                            }
                        }
                    }
                }
            }
            JOINT RightShoulder
            {
                OFFSET -7.065357 33.973492 -0.192664
                CHANNELS 3 Zrotation Xrotation Yrotation
                JOINT RightArm
                {
                    OFFSET -21.527611 0.000000 0.000000
                    CHANNELS 3 Zrotation Xrotation Yrotation
                    JOINT RightForeArm
                    {
                        OFFSET -56.353916 0.000000 0.000000
                        CHANNELS 3 Zrotation Xrotation Yrotation
                        JOINT RightHand
                        {
                            OFFSET -47.774071 0.000000 0.000000
                            CHANNELS 3 Zrotation Xrotation Yrotation
                            End Site
                            {
                                OFFSET -26.556021 0.000000 0.000000
                            }
                        }
                    }
                }
            }
        }
    }
    JOINT LeftUpLeg
    {
        OFFSET 17.704014 0.000000 0.000000
        CHANNELS 3 Zrotation Xrotation Yrotation
        JOINT LeftLeg
        {
            OFFSET -0.000000 -81.181816 0.000000
            CHANNELS 3 Zrotation Xrotation Yrotation
            JOINT LeftFoot
            {
                OFFSET -0.000000 -62.821102 0.000000
                CHANNELS 3 Zrotation Xrotation Yrotation
                JOINT LeftToeBase
                {
                    OFFSET -0.000000 -11.507608 26.556021
                    CHANNELS 3 Zrotation Xrotation Yrotation
                    End Site
                    {
                        OFFSET -0.000000 0.000000 7.081605
                    }
                }
            }
        }
    }
    JOINT RightUpLeg
    {
        OFFSET -17.704014 0.000000 0.000000
        CHANNELS 3 Zrotation Xrotation Yrotation
        JOINT RightLeg
        {
            OFFSET -0.000000 -81.181816 0.000000
            CHANNELS 3 Zrotation Xrotation Yrotation
            JOINT RightFoot
            {
                OFFSET -0.000000 -62.821102 0.000000
                CHANNELS 3 Zrotation Xrotation Yrotation
                JOINT RightToeBase
                {
                    OFFSET -0.000000 -11.507608 26.556021
                    CHANNELS 3 Zrotation Xrotation Yrotation
                    End Site
                    {
                        OFFSET -0.000000 0.000000 7.081605
                    }
                }
            }
        }
    }
}
MOTION
Frames:    8
Frame Time:    0.008333
-20.205095    148.473816    -31.326479    -10.270086    2.655994    1.543655    -6.522641    4.680320    11.077417    -7.160296    -0.758125    3.552379    -4.949849    -1.770667    -11.958110    23.914555    -2.219281    -7.770729    0.058954    3.630465    -9.376183    -35.268890    19.996279    -48.765987    -2.056180    -27.749371    -125.871124    -8.739672    -30.743055    -7.772162    -2.313852    12.102616    2.677306    38.557312    14.535110    58.412575    -38.508484    -30.648766    44.193466    8.678155    -13.208531    32.523472    17.722895    -40.756218    -25.334808    -15.883555    40.065151    -13.661130    -5.522441    -11.826621    42.744961    0.000000    0.000000    0.000000    9.975756    9.529510    -19.711376    2.555173    25.357391    -4.106779    5.101387    -29.564241    -2.619188    0.000000    0.000000    0.000000    
-20.206091    148.463623    -31.316311    -10.271818    2.655134    1.524946    -6.538445    4.665822    11.083916    -7.139636    -0.754713    3.554949    -4.948917    -1.757639    -11.956505    23.906569    -2.222981    -7.770334    0.056711    3.625360    -9.377707    -35.274658    20.003946    -48.770058    -2.056740    -27.762602    -125.862236    -8.727627    -30.758112    -7.753304    -2.321762    12.096272    2.681439    38.571594    14.511130    58.411003    -38.474823    -30.640812    44.197441    8.677047    -13.213934    32.517521    17.730865    -40.753788    -25.307417    -15.882968    40.094452    -13.607360    -5.492240    -11.836264    42.690281    0.000000    0.000000    0.000000    9.966475    9.527783    -19.713486    2.546583    25.383648    -4.054351    5.103783    -29.581680    -2.627448    0.000000    0.000000    0.000000    
-20.204519    148.452042    -31.307560    -10.270587    2.649981    1.510027    -4.794304    2.224132    10.129347    -9.008356    4.012785    3.656595    -4.762744    -3.358643    -11.483145    24.347088    -2.598871    -7.082773    1.267691    1.792795    -7.854812    -34.117950    20.458786    -50.231483    -1.357515    -30.539001    -125.268463    -9.088109    -32.246872    -7.821012    -3.534806    10.469985    3.866488    38.543797    14.698582    59.828587    -39.892258    -31.133106    42.348595    8.966332    -13.807843    32.618748    17.733841    -40.752190    -25.306015    -15.902792    40.119339    -13.594049    -5.480686    -11.861322    42.707092    0.000000    0.000000    0.000000    9.955843    9.528141    -19.723549    2.547775    25.410103    -4.087656    5.118302    -29.599279    -2.564795    0.000000    0.000000    0.000000    
-20.207333    148.445084    -31.297325    -10.272187    2.644484    1.494400    -6.559362    4.668626    11.087613    -7.136515    -0.766861    3.555080    -4.918061    -1.802859    -11.949154    23.871838    -2.148188    -7.786951    0.070255    3.628446    -9.382181    -35.285923    19.996685    -48.769764    -2.061356    -27.743376    -125.857185    -8.718799    -30.747477    -7.750269    -2.302672    12.090237    2.682894    38.570038    14.492822    58.421673    -38.467773    -30.635206    44.163822    8.708777    -13.213028    32.545052    17.744059    -40.745388    -25.295557    -15.910995    40.138954    -13.609163    -5.473702    -11.884502    42.728943    0.000000    0.000000    0.000000    9.951601    9.532179    -19.715755    2.541947    25.430201    -4.078546    5.143198    -29.611450    -2.550792    0.000000    0.000000    0.000000    
-20.205545    148.432190    -31.288607    -10.264565    2.639632    1.488725    -4.792365    2.216323    10.105391    -9.042428    4.026820    3.650992    -4.765650    -3.395071    -11.479738    24.384857    -2.528624    -7.085526    1.284402    1.772282    -7.826252    -34.106876    20.476925    -50.232082    -1.357100    -30.546873    -125.265923    -9.119706    -32.252151    -7.819977    -3.523492    10.447688    3.909033    38.549732    14.702085    59.832230    -39.922302    -31.147991    42.294079    8.987546    -13.826865    32.633957    17.731115    -40.747719    -25.297058    -15.912003    40.171711    -13.625814    -5.460480    -11.908395    42.739147    0.000000    0.000000    0.000000    9.939722    9.531304    -19.746674    2.523457    25.456264    -4.070960    5.180425    -29.635757    -2.506256    0.000000    0.000000    0.000000    
-20.205139    148.423004    -31.280685    -10.263008    2.633646    1.483313    -6.582803    4.678986    11.078517    -7.134034    -0.778780    3.550765    -4.913923    -1.829903    -11.963670    23.883751    -2.091784    -7.811418    0.066307    3.610998    -9.381191    -35.290565    20.020065    -48.765392    -2.072185    -27.711773    -125.860641    -8.738144    -30.734390    -7.751640    -2.297097    12.086519    2.689248    38.584648    14.482615    58.410793    -38.455704    -30.634701    44.164768    8.678644    -13.227322    32.529274    17.723322    -40.748123    -25.299587    -15.909151    40.198788    -13.646399    -5.451367    -11.918251    42.760307    0.000000    0.000000    0.000000    9.933591    9.535795    -19.725819    2.541932    25.469564    -4.105148    5.178740    -29.642498    -2.500093    0.000000    0.000000    0.000000    
-20.204004    148.412018    -31.276257    -10.255839    2.632265    1.478047    -4.804782    2.230371    10.096345    -9.053267    4.014380    3.647047    -4.770604    -3.415778    -11.488348    24.415028    -2.492343    -7.095357    1.287595    1.775851    -7.817609    -34.089996    20.488386    -50.252258    -1.373115    -30.517284    -125.272186    -9.146237    -32.247105    -7.835664    -3.523517    10.457072    3.913336    38.590248    14.664753    59.826077    -39.887016    -31.123508    42.326778    8.959318    -13.811236    32.605076    17.714417    -40.752460    -25.307507    -15.918282    40.217026    -13.659067    -5.449565    -11.944099    42.790470    0.000000    0.000000    0.000000    9.923258    9.524886    -19.748854    2.514824    25.506939    -4.032613    5.166595    -29.666527    -2.532003    0.000000    0.000000    0.000000    
-20.203773    148.400909    -31.269609    -10.256998    2.630752    1.481223    -6.598404    4.683875    11.071760    -7.127222    -0.779192    3.548184    -4.931228    -1.848112    -11.974302    23.917030    -2.070457    -7.817849    0.059250    3.616880    -9.383485    -35.271988    20.018564    -48.788116    -2.091714    -27.657957    -125.867569    -8.761012    -30.714111    -7.754256    -2.303149    12.082604    2.682113    38.614151    14.466640    58.403069    -38.432919    -30.630583    44.191017    8.675023    -13.225139    32.507320    17.708920    -40.759876    -25.328459    -15.934412    40.235626    -13.648996    -5.439105    -11.959388    42.794609    0.000000    0.000000    0.000000    9.927802    9.516671    -19.776676    2.488265    25.531954    -4.015037    5.178777    -29.684715    -2.515928    0.000000    0.000000    0.000000    
